<?xml version="1.0" standalone="no"?>
<!DOCTYPE svg PUBLIC "-//W3C//DTD SVG 20010904//EN"
 "http://www.w3.org/TR/2001/REC-SVG-20010904/DTD/svg10.dtd">
<svg version="1.0" xmlns="http://www.w3.org/2000/svg"
 width="32.000000pt" height="32.000000pt" viewBox="0 0 32.000000 32.000000"
 preserveAspectRatio="xMidYMid meet">

<g transform="translate(0.000000,32.000000) scale(0.100000,-0.100000)"
fill="#000000" stroke="none">
<path d="M103 305 c-62 -27 -92 -113 -57 -164 22 -31 35 -10 27 45 -8 57 26
94 87 94 58 0 93 -35 90 -93 -3 -55 -2 -67 8 -67 14 0 32 48 32 84 0 41 -32
84 -76 102 -42 17 -70 17 -111 -1z"/>
<path d="M83 131 c-40 -65 -73 -122 -73 -125 0 -3 20 -6 44 -6 30 0 46 5 50
15 4 10 -1 15 -15 15 -11 0 -19 4 -17 8 9 23 83 142 88 142 6 0 90 -133 90
-143 0 -3 -9 -7 -20 -9 -13 -2 -17 -7 -11 -16 5 -9 24 -12 53 -10 l45 3 -76
123 c-42 67 -78 122 -81 122 -3 0 -38 -54 -77 -119z"/>
<path d="M124 111 c-2 -2 -4 -10 -4 -18 0 -9 14 -13 45 -13 43 0 58 11 33 26
-13 8 -67 12 -74 5z"/>
</g>
</svg>
